<svg id="visual" viewBox="0 0 960 540" xmlns="http://www.w3.org/2000/svg" xmlns:xlink="http://www.w3.org/1999/xlink" version="1.1"><defs><linearGradient id="grad1_0" x1="43.8%" y1="0%" x2="100%" y2="100%"><stop offset="14.444444444444446%" stop-color="#3182ce" stop-opacity="1"></stop><stop offset="85.55555555555554%" stop-color="#3182ce" stop-opacity="1"></stop></linearGradient></defs><defs><linearGradient id="grad1_1" x1="43.8%" y1="0%" x2="100%" y2="100%"><stop offset="14.444444444444446%" stop-color="#3182ce" stop-opacity="1"></stop><stop offset="85.55555555555554%" stop-color="#749fdb" stop-opacity="1"></stop></linearGradient></defs><defs><linearGradient id="grad1_2" x1="43.8%" y1="0%" x2="100%" y2="100%"><stop offset="14.444444444444446%" stop-color="#a6bee7" stop-opacity="1"></stop><stop offset="85.55555555555554%" stop-color="#749fdb" stop-opacity="1"></stop></linearGradient></defs><defs><linearGradient id="grad1_3" x1="43.8%" y1="0%" x2="100%" y2="100%"><stop offset="14.444444444444446%" stop-color="#a6bee7" stop-opacity="1"></stop><stop offset="85.55555555555554%" stop-color="#d3def3" stop-opacity="1"></stop></linearGradient></defs><defs><linearGradient id="grad1_4" x1="43.8%" y1="0%" x2="100%" y2="100%"><stop offset="14.444444444444446%" stop-color="#ffffff" stop-opacity="1"></stop><stop offset="85.55555555555554%" stop-color="#d3def3" stop-opacity="1"></stop></linearGradient></defs><defs><linearGradient id="grad2_0" x1="0%" y1="0%" x2="56.3%" y2="100%"><stop offset="14.444444444444446%" stop-color="#3182ce" stop-opacity="1"></stop><stop offset="85.55555555555554%" stop-color="#3182ce" stop-opacity="1"></stop></linearGradient></defs><defs><linearGradient id="grad2_1" x1="0%" y1="0%" x2="56.3%" y2="100%"><stop offset="14.444444444444446%" stop-color="#749fdb" stop-opacity="1"></stop><stop offset="85.55555555555554%" stop-color="#3182ce" stop-opacity="1"></stop></linearGradient></defs><defs><linearGradient id="grad2_2" x1="0%" y1="0%" x2="56.3%" y2="100%"><stop offset="14.444444444444446%" stop-color="#749fdb" stop-opacity="1"></stop><stop offset="85.55555555555554%" stop-color="#a6bee7" stop-opacity="1"></stop></linearGradient></defs><defs><linearGradient id="grad2_3" x1="0%" y1="0%" x2="56.3%" y2="100%"><stop offset="14.444444444444446%" stop-color="#d3def3" stop-opacity="1"></stop><stop offset="85.55555555555554%" stop-color="#a6bee7" stop-opacity="1"></stop></linearGradient></defs><defs><linearGradient id="grad2_4" x1="0%" y1="0%" x2="56.3%" y2="100%"><stop offset="14.444444444444446%" stop-color="#d3def3" stop-opacity="1"></stop><stop offset="85.55555555555554%" stop-color="#ffffff" stop-opacity="1"></stop></linearGradient></defs><g transform="translate(960, 0)"><path d="M0 270C-18.9 247.9 -37.7 225.7 -58.2 217.3C-78.7 208.9 -100.8 214.3 -122.5 212.2C-144.2 210 -165.4 200.4 -187.4 187.4C-209.4 174.4 -232.2 158.1 -233.8 135C-235.4 111.9 -215.8 82.1 -218.3 58.5C-220.8 34.9 -245.4 17.4 -270 0L0 0Z" fill="#e9eef9" id="wr1_1"></path><path d="M0 216C-15.1 198.3 -30.2 180.6 -46.6 173.9C-63 167.2 -80.7 171.5 -98 169.7C-115.3 168 -132.3 160.3 -149.9 149.9C-167.5 139.5 -185.8 126.5 -187.1 108C-188.3 89.5 -172.6 65.7 -174.6 46.8C-176.6 27.9 -196.3 13.9 -216 0L0 0Z" fill="#bdceed" id="wr1_2"></path><path d="M0 162C-11.3 148.7 -22.6 135.4 -34.9 130.4C-47.2 125.4 -60.5 128.6 -73.5 127.3C-86.5 126 -99.2 120.2 -112.4 112.4C-125.6 104.6 -139.3 94.8 -140.3 81C-141.3 67.2 -129.5 49.3 -131 35.1C-132.5 20.9 -147.2 10.5 -162 0L0 0Z" fill="#8eafe1"  id="wr1_3"></path><path d="M0 108C-7.5 99.1 -15.1 90.3 -23.3 86.9C-31.5 83.6 -40.3 85.7 -49 84.9C-57.7 84 -66.1 80.1 -75 75C-83.8 69.8 -92.9 63.2 -93.5 54C-94.2 44.8 -86.3 32.8 -87.3 23.4C-88.3 13.9 -98.2 7 -108 0L0 0Z" fill="#5891d4" id="wr1_4"></path><path d="M0 54C-3.8 49.6 -7.5 45.1 -11.6 43.5C-15.7 41.8 -20.2 42.9 -24.5 42.4C-28.8 42 -33.1 40.1 -37.5 37.5C-41.9 34.9 -46.4 31.6 -46.8 27C-47.1 22.4 -43.2 16.4 -43.7 11.7C-44.2 7 -49.1 3.5 -54 0L0 0Z" fill="#3182ce" id="wr1_5"></path></g>
<g transform="translate(960, 0)" style="visibility: hidden"><path d="M0 351C-40 352.3 -80 353.5 -108.5 333.8C-137 314.1 -154 273.4 -179.9 247.6C-205.7 221.7 -240.3 210.8 -257.3 186.9C-274.2 163.1 -273.6 126.3 -286.3 93C-299 59.7 -325 29.9 -351 0L0 0Z" fill="#e9eef9" id="wr2_1"></path><path d="M0 280.8C-32 281.8 -64 282.8 -86.8 267.1C-109.6 251.3 -123.2 218.7 -143.9 198C-164.6 177.4 -192.2 168.6 -205.8 149.5C-219.4 130.5 -218.9 101.1 -229 74.4C-239.2 47.8 -260 23.9 -280.8 0L0 0Z" fill="#bdceed" id="wr2_2"></path><path d="M0 210.6C-24 211.4 -48 212.1 -65.1 200.3C-82.2 188.5 -92.4 164 -107.9 148.5C-123.4 133 -144.2 126.5 -154.4 112.1C-164.5 97.8 -164.2 75.8 -171.8 55.8C-179.4 35.8 -195 17.9 -210.6 0L0 0Z" fill="#8eafe1" id="wr2_3"></path><path d="M0 140.4C-16 140.9 -32 141.4 -43.4 133.5C-54.8 125.6 -61.6 109.4 -71.9 99C-82.3 88.7 -96.1 84.3 -102.9 74.8C-109.7 65.2 -109.4 50.5 -114.5 37.2C-119.6 23.9 -130 11.9 -140.4 0L0 0Z" fill="#5891d4" id="wr2_4"></path><path d="M0 70.2C-8 70.5 -16 70.7 -21.7 66.8C-27.4 62.8 -30.8 54.7 -36 49.5C-41.1 44.3 -48.1 42.2 -51.5 37.4C-54.8 32.6 -54.7 25.3 -57.3 18.6C-59.8 11.9 -65 6 -70.2 0L0 0Z" fill="#3182ce" id="wr2_5"></path></g>
</svg>