<svg id="visual" viewBox="0 0 960 540" xmlns="http://www.w3.org/2000/svg" xmlns:xlink="http://www.w3.org/1999/xlink" version="1.1"><defs><linearGradient id="grad1_0" x1="43.8%" y1="0%" x2="100%" y2="100%"><stop offset="14.444444444444446%" stop-color="#3182ce" stop-opacity="1"></stop><stop offset="85.55555555555554%" stop-color="#3182ce" stop-opacity="1"></stop></linearGradient></defs><defs><linearGradient id="grad1_1" x1="43.8%" y1="0%" x2="100%" y2="100%"><stop offset="14.444444444444446%" stop-color="#3182ce" stop-opacity="1"></stop><stop offset="85.55555555555554%" stop-color="#749fdb" stop-opacity="1"></stop></linearGradient></defs><defs><linearGradient id="grad1_2" x1="43.8%" y1="0%" x2="100%" y2="100%"><stop offset="14.444444444444446%" stop-color="#a6bee7" stop-opacity="1"></stop><stop offset="85.55555555555554%" stop-color="#749fdb" stop-opacity="1"></stop></linearGradient></defs><defs><linearGradient id="grad1_3" x1="43.8%" y1="0%" x2="100%" y2="100%"><stop offset="14.444444444444446%" stop-color="#a6bee7" stop-opacity="1"></stop><stop offset="85.55555555555554%" stop-color="#d3def3" stop-opacity="1"></stop></linearGradient></defs><defs><linearGradient id="grad1_4" x1="43.8%" y1="0%" x2="100%" y2="100%"><stop offset="14.444444444444446%" stop-color="#ffffff" stop-opacity="1"></stop><stop offset="85.55555555555554%" stop-color="#d3def3" stop-opacity="1"></stop></linearGradient></defs><defs><linearGradient id="grad2_0" x1="0%" y1="0%" x2="56.3%" y2="100%"><stop offset="14.444444444444446%" stop-color="#3182ce" stop-opacity="1"></stop><stop offset="85.55555555555554%" stop-color="#3182ce" stop-opacity="1"></stop></linearGradient></defs><defs><linearGradient id="grad2_1" x1="0%" y1="0%" x2="56.3%" y2="100%"><stop offset="14.444444444444446%" stop-color="#749fdb" stop-opacity="1"></stop><stop offset="85.55555555555554%" stop-color="#3182ce" stop-opacity="1"></stop></linearGradient></defs><defs><linearGradient id="grad2_2" x1="0%" y1="0%" x2="56.3%" y2="100%"><stop offset="14.444444444444446%" stop-color="#749fdb" stop-opacity="1"></stop><stop offset="85.55555555555554%" stop-color="#a6bee7" stop-opacity="1"></stop></linearGradient></defs><defs><linearGradient id="grad2_3" x1="0%" y1="0%" x2="56.3%" y2="100%"><stop offset="14.444444444444446%" stop-color="#d3def3" stop-opacity="1"></stop><stop offset="85.55555555555554%" stop-color="#a6bee7" stop-opacity="1"></stop></linearGradient></defs><defs><linearGradient id="grad2_4" x1="0%" y1="0%" x2="56.3%" y2="100%"><stop offset="14.444444444444446%" stop-color="#d3def3" stop-opacity="1"></stop><stop offset="85.55555555555554%" stop-color="#ffffff" stop-opacity="1"></stop></linearGradient></defs><g transform="translate(0, 540)"><path d="M0 -270C19.2 -248.5 38.4 -227.1 58 -216.4C77.5 -205.7 97.4 -205.8 115 -199.2C132.6 -192.6 147.8 -179.3 169 -169C190.2 -158.7 217.5 -151.3 233.8 -135C250.2 -118.7 255.6 -93.6 259.8 -69.6C264 -45.6 267 -22.8 270 0L0 0Z" fill="#e9eef9" id="wl1_1"></path><path d="M0 -216C15.4 -198.8 30.7 -181.6 46.4 -173.1C62 -164.5 78 -164.6 92 -159.3C106 -154.1 118.2 -143.5 135.2 -135.2C152.2 -126.9 174 -121 187.1 -108C200.1 -95 204.5 -74.9 207.9 -55.7C211.2 -36.5 213.6 -18.3 216 0L0 0Z" fill="#bdceed" id="wl1_2"></path><path d="M0 -162C11.5 -149.1 23.1 -136.2 34.8 -129.8C46.5 -123.4 58.5 -123.5 69 -119.5C79.5 -115.6 88.7 -107.6 101.4 -101.4C114.1 -95.2 130.5 -90.8 140.3 -81C150.1 -71.2 153.4 -56.2 155.9 -41.8C158.4 -27.4 160.2 -13.7 162 0L0 0Z" fill="#8eafe1" id="wl1_3"></path><path d="M0 -108C7.7 -99.4 15.4 -90.8 23.2 -86.5C31 -82.3 39 -82.3 46 -79.7C53 -77 59.1 -71.7 67.6 -67.6C76.1 -63.5 87 -60.5 93.5 -54C100.1 -47.5 102.2 -37.4 103.9 -27.8C105.6 -18.3 106.8 -9.1 108 0L0 0Z" fill="#5891d4" id="wl1_4"></path><path d="M0 -54C3.8 -49.7 7.7 -45.4 11.6 -43.3C15.5 -41.1 19.5 -41.2 23 -39.8C26.5 -38.5 29.6 -35.9 33.8 -33.8C38 -31.7 43.5 -30.3 46.8 -27C50 -23.7 51.1 -18.7 52 -13.9C52.8 -9.1 53.4 -4.6 54 0L0 0Z" fill="#3182ce" id="wl1_5"></path></g>
<g transform="translate(0, 540)" style="visibility: hidden"><path d="M0 -351C36.9 -346.3 73.7 -341.6 107.2 -330C140.7 -318.4 170.9 -300 203.4 -279.9C235.8 -259.8 270.6 -238.2 284 -206.3C297.3 -174.5 289.1 -132.5 296.7 -96.4C304.3 -60.3 327.7 -30.2 351 0L0 0Z" fill="#e9eef9" id="wl2_1"></path><path d="M0 -280.8C29.5 -277 59 -273.3 85.8 -264C112.6 -254.8 136.7 -240 162.7 -223.9C188.7 -207.9 216.5 -190.5 227.2 -165.1C237.8 -139.6 231.3 -106 237.4 -77.1C243.5 -48.3 262.1 -24.1 280.8 0L0 0Z" fill="#bdceed" id="wl2_2"></path><path d="M0 -210.6C22.1 -207.8 44.2 -205 64.3 -198C84.4 -191.1 102.5 -180 122 -168C141.5 -155.9 162.4 -142.9 170.4 -123.8C178.4 -104.7 173.5 -79.5 178 -57.8C182.6 -36.2 196.6 -18.1 210.6 0L0 0Z" fill="#8eafe1" id="wl2_3"></path><path d="M0 -140.4C14.7 -138.5 29.5 -136.6 42.9 -132C56.3 -127.4 68.4 -120 81.3 -112C94.3 -103.9 108.3 -95.3 113.6 -82.5C118.9 -69.8 115.7 -53 118.7 -38.6C121.7 -24.1 131.1 -12.1 140.4 0L0 0Z" fill="#5891d4" id="wl2_4"></path><path d="M0 -70.2C7.4 -69.3 14.7 -68.3 21.4 -66C28.1 -63.7 34.2 -60 40.7 -56C47.2 -52 54.1 -47.6 56.8 -41.3C59.5 -34.9 57.8 -26.5 59.3 -19.3C60.9 -12.1 65.5 -6 70.2 0L0 0Z" fill="#3182ce" id="wl2_5"></path></g></svg>